<svg preserveAspectRatio="xMidYMid meet" width="51" height="32" viewBox="0 0 51 31.8148" fill="none" xmlns="http://www.w3.org/2000/svg">
<g id="WTS LOGO">
<path id="Vector" d="M23.9953 9.77377C23.4344 9.77377 22.7717 9.8908 22.623 10.8029C22.1356 13.7106 21.1219 18.8482 20.7543 20.1146C20.7018 20.2836 20.6041 20.5965 20.5523 20.6325C20.5523 20.6325 20.5439 20.6357 20.5164 20.6357C20.4891 20.6357 20.4789 20.6341 20.4803 20.6357C20.4571 20.6169 20.403 20.5268 20.3059 20.1498C20.2739 20.0103 20.2294 19.8172 20.1738 19.5794C19.7616 17.7977 18.7962 13.625 18.3831 11.3999C18.2338 10.6461 17.4015 10.2129 16.0989 10.2129C14.7001 10.2129 14.0658 10.824 13.939 11.3962C13.7755 12.1243 13.5659 13.0627 13.3444 14.0583C12.7969 16.5192 12.1758 19.3083 11.9652 20.1461C11.8746 20.5019 11.8221 20.6064 11.7963 20.6357H11.78C11.7292 20.6357 11.7157 20.6304 11.7157 20.6304C11.6633 20.5936 11.5797 20.279 11.543 20.1416C11.1659 18.8203 10.1113 13.7098 9.69746 10.8044C9.55509 9.89834 8.93001 9.77377 8.27529 9.77377C7.34909 9.77377 6.92581 10.321 6.92581 10.8308C6.92581 11.8998 8.64768 19.0268 9.44956 21.5072C9.77328 22.6387 10.5056 22.8661 11.5821 22.8661C13.0416 22.8661 13.7762 22.4592 14.036 21.5072C14.3459 20.4104 14.9715 17.5545 15.4747 15.258C15.6498 14.4615 15.8149 13.7092 15.9386 13.1596C16.0207 12.7909 16.0739 12.7909 16.1481 12.7909C16.2389 12.7909 16.2624 12.7909 16.3313 13.1761C16.6997 15.2256 17.8575 19.9937 18.2329 21.5012C18.4692 22.4584 19.1591 22.8661 20.5407 22.8661C21.8277 22.8661 22.3571 22.538 22.7185 21.5192C23.6519 18.9622 25.3447 12.0546 25.3447 10.8075C25.3447 10.2924 24.9277 9.77377 23.9953 9.77377ZM41.0563 15.2482C39.5824 14.2782 38.6696 13.5411 38.6696 12.8684C38.6696 12.1273 38.9731 11.7248 40.5775 11.7248C41.2534 11.7248 41.8932 11.761 42.6475 11.8398C43.3633 11.9389 43.8271 11.553 43.8271 10.8773C43.8271 10.628 43.7701 10.27 43.278 10.0237C42.7601 9.77973 41.8019 9.65657 40.4297 9.65657H32.1227C31.6455 9.65657 31.6455 9.64986 31.6455 9.25571V7.05451C31.6455 6.04388 30.6292 6.04387 30.2959 6.04387C29.962 6.04387 28.9466 6.04388 28.9466 7.07776V9.25571C28.9466 9.64986 28.9466 9.65657 28.4701 9.65657H27.3336C26.9329 9.65657 26.4542 9.83229 26.4542 10.6671C26.4542 11.369 26.7499 11.7248 27.3336 11.7248H28.4943C28.9466 11.7248 28.9466 11.7678 28.9466 12.174V19.4C28.9466 21.511 29.4528 22.8196 31.974 22.8196C32.6218 22.8196 33.3759 22.6776 33.6567 22.5493C34.163 22.3473 34.163 21.8368 34.163 21.6694C34.163 21.1214 33.8992 20.8436 33.3814 20.8436H32.887C32.0632 20.8436 31.6455 20.6018 31.6455 19.2835V12.1507C31.6455 11.7488 31.6987 11.7248 32.1227 11.7248H36.1834C36.0591 12.0837 35.9949 12.4907 35.9949 12.9381C35.9949 14.2527 36.7523 15.2242 38.8871 16.6491C40.9264 18.026 41.3261 18.7175 41.3261 19.4457C41.3261 20.4067 40.6658 20.7977 39.0473 20.7977C38.1729 20.7977 37.5586 20.725 36.9056 20.6386C36.839 20.6282 36.7718 20.6228 36.7085 20.6228C36.1576 20.6228 35.7735 21.0154 35.7735 21.5778C35.7735 22.0575 36.0122 22.3945 36.4675 22.5554C37.0604 22.7497 37.9976 22.8661 38.9731 22.8661C42.3557 22.8661 44 21.7092 44 19.33C44 17.7279 43.2022 16.6213 41.0563 15.2482Z" fill="var(--fill-0, #CC0033)"/>
</g>
</svg>
